<?xml version="1.0" encoding="UTF-8" standalone="no"?>
<!-- Created with Inkscape (http://www.inkscape.org/) -->

<svg
   width="210mm"
   height="297mm"
   viewBox="0 0 210 297"
   version="1.1"
   id="svg5"
   xmlns="http://www.w3.org/2000/svg"
   xmlns:svg="http://www.w3.org/2000/svg">
  <defs
     id="defs2" />
  <g
     id="layer1">
    <path
       style="color:#000000;fill:#000000;-inkscape-stroke:none"
       d="m 126.94531,65.886719 c -0.91616,0.0608 -1.717,0.215416 -2.30664,0.492187 h -0.002 c -1.33105,0.659504 -2.3222,2.128676 -2.0918,3.523438 l 0.002,0.0039 v 0.0059 c 0.18247,0.749219 0.30136,1.24946 1.19726,1.882813 l 0.006,0.0039 0.008,0.0039 c 0.90877,0.498904 1.67076,0.656985 2.47657,0.744141 0.8058,0.08716 1.65558,0.10639 2.77929,0.326172 0.96163,0.18808 2.3291,0.530467 3.31641,0.791015 1.21288,0.320075 2.57698,0.599986 3.5664,0.857422 0.94534,0.245964 1.7865,0.132484 2.61914,-0.4375 0.39041,-0.26725 0.90064,-0.940849 1.13282,-1.816406 0.23218,-0.875557 0.16167,-1.955237 -0.66602,-2.955078 -0.54873,-0.662867 -2.07502,-1.724493 -3.36133,-2.175781 -1.42167,-0.534221 -3.58068,-0.989688 -5.67773,-1.181641 -1.04922,-0.09604 -2.08188,-0.12916 -2.99805,-0.06836 z m 0.0156,0.269531 c 0.89739,-0.06051 1.91858,-0.03255 2.95703,0.0625 2.07689,0.190108 4.22828,0.645119 5.61328,1.166016 h 0.002 0.002 c 1.22295,0.429063 2.76465,1.516485 3.24414,2.095703 0.77337,0.934224 0.82869,1.906419 0.61328,2.71875 -0.21541,0.812331 -0.72639,1.46195 -1.02735,1.667968 -0.77949,0.533606 -1.51094,0.630368 -2.40234,0.398438 -1.00129,-0.260523 -2.36395,-0.540097 -3.56641,-0.857422 -0.9903,-0.26134 -2.35751,-0.604321 -3.33203,-0.794922 -1.14554,-0.224051 -2.0129,-0.244649 -2.80273,-0.330078 -0.78727,-0.08515 -1.49775,-0.234126 -2.36914,-0.710937 -0.8416,-0.597366 -0.90533,-0.969946 -1.08594,-1.712891 v -0.002 c -0.20387,-1.241073 0.71,-2.627512 1.94531,-3.240235 0.53896,-0.252979 1.3116,-0.400428 2.20899,-0.460937 z"
       id="path13656" />
    <path
       style="color:#000000;fill:#000000;-inkscape-stroke:none"
       d="m 119.41797,64.728516 c -3.27574,-0.01711 -7.11273,-0.05223 -10.38672,0.929687 l -0.002,0.002 h -0.002 c -5.2e-4,1.75e-4 -0.001,-1.74e-4 -0.002,0 -0.002,5.58e-4 -0.002,0.0014 -0.004,0.002 -2.19016,0.729996 -5.17597,1.689832 -6.23437,3.806641 l 0.23633,0.119141 c 0.77707,-1.554161 2.74349,-2.41592 4.62304,-3.101563 -1.00454,0.670974 -1.77298,1.4824 -2.0957,2.578125 -0.46216,1.569155 -0.31117,3.540723 0.17578,5.90625 v 0.0059 l 0.002,0.0059 c 0.53483,1.805878 1.18745,2.935428 1.90039,3.693359 0.71293,0.757932 1.48253,1.138676 2.22656,1.458985 0.59542,0.256334 1.68033,0.534492 3.04687,0.818359 1.36654,0.283867 3.01061,0.570627 4.69922,0.826172 3.37723,0.51109 6.92914,0.902623 8.81641,0.916015 2.54342,0.01726 5.98354,0.01576 8.95898,-0.398437 h 0.002 0.002 c 1.46955,-0.249027 3.43232,-0.60369 4.81445,-1.746094 l 0.004,-0.0039 0.004,-0.0039 c 1.00643,-0.997779 1.92321,-2.210169 2.24415,-4.701172 v -0.01367 -0.01367 c -0.11125,-1.420269 -0.41379,-3.294892 -0.5293,-4.103516 -0.22985,-1.608928 -0.97195,-2.403662 -2.20313,-3.470703 v -0.002 c -3.16273,-2.659434 -7.00322,-2.834653 -10.72851,-3.201172 h -0.004 -0.004 c -4.45029,-0.194316 -6.32785,-0.270686 -9.5586,-0.308593 z m -0.002,0.263671 c 3.22582,0.03785 5.10075,0.114552 9.54492,0.308594 3.73452,0.367427 7.49575,0.545478 10.58203,3.140625 1.22174,1.058948 1.89278,1.763184 2.11328,3.306641 0.11599,0.811995 0.41437,2.669587 0.52539,4.068359 -0.31496,2.429452 -1.17485,3.55568 -2.16016,4.533203 -1.30713,1.077083 -3.22128,1.437416 -4.68554,1.685547 -2.94699,0.409818 -6.37541,0.411767 -8.91602,0.394531 -1.85282,-0.01315 -5.40952,-0.402146 -8.77929,-0.912109 -1.68489,-0.254981 -3.32382,-0.539804 -4.6836,-0.822266 -1.35977,-0.282461 -2.445,-0.565487 -2.99609,-0.802734 -0.73494,-0.316398 -1.46031,-0.677261 -2.13867,-1.398437 -0.67811,-0.720899 -1.31323,-1.808636 -1.83985,-3.585938 -2e-4,-6.86e-4 2.1e-4,-0.0013 0,-0.002 -0.48105,-2.341508 -0.61758,-4.274184 -0.17773,-5.767578 0.44051,-1.495644 1.44474,-2.566824 3.30859,-3.228516 6e-4,-1.78e-4 0.001,1.79e-4 0.002,0 3.21552,-0.962566 7.02736,-0.935068 10.30079,-0.917969 z"
       id="path27279" />
    <path
       style="color:#000000;fill:#000000;-inkscape-stroke:none"
       d="m 102.79883,69.449219 c -0.53546,0.717928 -0.84155,1.823185 -1.03516,2.939453 -0.19361,1.116268 -0.26802,2.243578 -0.31054,2.988281 -0.0764,1.337612 -0.0725,3.407368 0.14257,5.416016 0.21506,2.008648 0.63049,3.952596 1.42188,5.060547 0.93762,1.312657 3.61923,3.122155 5.52148,3.833984 h 0.004 l 0.002,0.002 c 3.26246,1.053348 5.3631,1.221305 10.82617,1.328125 l -0.004,-0.002 c 3.40847,0.149163 7.01736,-0.165401 10.04101,-0.664063 3.02366,-0.498661 5.45095,-1.171956 6.54102,-1.773437 0.85224,-0.470255 2.81881,-1.015823 4.30273,-2.533203 1.17074,-1.197136 1.75957,-3.320326 2.04492,-5.361328 0.28536,-2.041002 0.26073,-3.995202 0.1504,-4.875 l -0.26368,0.0332 c 0.10483,0.835807 0.13144,2.788957 -0.15039,4.804687 -0.28182,2.015731 -0.87974,4.097333 -1.9707,5.212891 -1.42423,1.456339 -3.31712,1.978917 -4.24023,2.488281 -1.01574,0.560466 -3.44905,1.246112 -6.45704,1.742188 -3.00798,0.496076 -6.60233,0.810201 -9.98632,0.662109 h -0.002 c -5.45546,-0.106671 -7.50903,-0.268644 -10.74414,-1.3125 l -0.006,-0.002 c -1.83861,-0.689463 -4.53224,-2.531084 -5.39453,-3.738281 -0.73036,-1.022512 -1.15999,-2.943704 -1.37304,-4.933594 -0.21306,-1.98989 -0.21807,-4.051653 -0.14258,-5.373047 0.0424,-0.742111 0.11619,-1.858982 0.30664,-2.957031 0.19045,-1.098049 0.5029,-2.177336 0.98828,-2.828125 z"
       id="path31363" />
    <path
       style="color:#000000;fill:#000000;-inkscape-stroke:none"
       d="m 118.02734,59.212891 c -2.88267,-0.02168 -5.42032,0.0403 -7.72461,0.361328 -4.60857,0.642064 -8.28927,2.330187 -11.900386,6.43164 l -0.0059,0.0078 -0.0039,0.0059 c -0.238429,0.357644 -0.605513,0.881867 -0.945312,1.419922 -0.3398,0.538055 -0.653866,1.087154 -0.789063,1.521484 v 0.002 l -0.002,0.0039 c -1.177508,4.55167 -1.127288,9.306943 -1.060547,13.464844 l 0.263672,-0.0039 c -0.06669,-4.154966 -0.111607,-8.883776 1.052734,-13.388672 0.1189,-0.381974 0.422528,-0.926125 0.757813,-1.457031 0.33197,-0.525657 0.689921,-1.038314 0.93164,-1.40039 l 0.002,-0.002 c 3.575544,-4.060157 7.171954,-5.707844 11.736324,-6.34375 4.56522,-0.636022 10.09912,-0.247693 17.48829,-0.214843 v -0.263672 c -3.69023,-0.0164 -6.91811,-0.122852 -9.80079,-0.144531 z"
       id="path32823" />
    <path
       style="color:#000000;fill:#000000;-inkscape-stroke:none"
       d="m 95.859375,82.423828 -0.263672,0.01172 c 0.20359,4.377919 1.621448,5.814116 3.591797,8.527344 3.3124,4.062953 8.46684,5.146257 13.48434,5.556668 2.72587,0.194707 4.94292,0.327039 7.93164,0.398438 h 0.004 0.004 c 3.35915,-0.11292 7.34413,-0.403212 10.76367,-1.060547 2.08699,-0.391309 3.89466,-0.487892 6.02148,-1.507813 l -0.11523,-0.238281 c -2.07995,0.997445 -3.84891,1.091424 -5.95508,1.486328 -3.39374,0.652375 -7.3673,0.941869 -10.71679,1.054688 -2.98341,-0.07127 -5.19481,-0.201985 -7.91797,-0.396485 h -0.002 c -4.6344,-0.531572 -9.18716,-0.897011 -13.287106,-5.449218 -1.979945,-2.726441 -3.341869,-4.058427 -3.542969,-8.382813 z"
       id="path32825" />
    <path
       style="color:#000000;fill:#000000;-inkscape-stroke:none"
       d="m 127.83594,59.357422 -0.0156,0.263672 c 2.29777,0.134302 5.42083,0.634069 8.34766,1.054687 3.93544,0.825333 6.49081,2.883703 8.68555,5.589844 1.02725,1.350998 1.66634,3.229694 2.35546,5.330078 1.26633,4.149036 1.05101,10.37389 -0.60937,14.121094 -0.51978,0.915616 -2.42497,3.644307 -3.14844,4.416015 -1.48689,1.586009 -4.15949,3.126761 -6.16406,3.976563 l 0.10351,0.244141 c 2.03209,-0.861469 4.7178,-2.400554 6.25391,-4.039063 0.77675,-0.828536 2.64771,-3.516638 3.18945,-4.472656 l 0.002,-0.0059 0.004,-0.0059 c 1.70321,-3.83842 1.91301,-10.085456 0.6211,-14.314453 v -0.002 -0.002 c -0.69012,-2.103415 -1.33039,-4.007238 -2.39844,-5.410157 l -0.002,-0.002 v -0.002 c -2.21688,-2.733449 -4.84016,-4.842835 -8.83985,-5.68164 h -0.004 l -0.004,-0.002 c -2.92613,-0.420425 -6.05291,-0.920802 -8.37695,-1.05664 z"
       id="path32827" />
    <path
       style="color:#000000;fill:#000000;-inkscape-stroke:none"
       d="m 107.17383,43.900391 c -6.33905,0.178954 -8.742606,-0.05427 -15.007814,1.90039 l -0.0098,0.002 -0.0098,0.0059 c -1.69698,0.85763 -5.313979,2.332706 -7.697265,4.736328 v 0.002 h -0.002 c -2.99634,3.193359 -4.993901,7.44085 -5.621094,9.384766 l -0.002,0.0039 v 0.002 c -1.136439,4.139986 -2.585994,9.477084 -3.019532,12.421875 -3.759729,0.660408 -9.26503,0.683404 -13.173828,3.267578 -1.243314,0.821976 -2.071465,2.581776 -2.642578,4.392578 -1.786855,6.406713 -2.317686,13.438726 -2.613281,19.488281 -0.739512,11.104883 -0.561825,17.665883 0.662109,24.425783 l 0.002,0.002 v 0.004 c 0.555327,2.33664 1.55352,5.25102 2.382813,7.50196 0.25586,0.69447 0.893113,1.63289 1.71875,2.49023 0.825637,0.85733 1.837774,1.62943 2.857422,1.94922 3.587163,1.127 8.388567,1.24374 10.027344,1.32616 l 0.01367,-0.26366 c -1.651647,-0.0831 -6.435368,-0.20619 -9.96289,-1.31445 -0.950515,-0.29812 -1.940731,-1.04458 -2.746094,-1.88087 -0.805362,-0.83628 -1.42743,-1.76676 -1.660156,-2.39843 -0.826828,-2.24425 -1.820558,-5.15038 -2.371094,-7.46484 -1.21948,-6.73531 -1.399204,-13.26473 -0.660156,-24.361338 v -0.002 c 0.534371,-6.979915 0.749296,-13.182956 2.603562,-19.421903 0.563577,-1.786908 1.391875,-3.497401 2.533204,-4.251953 3.838341,-2.537594 9.355518,-2.5571 13.160156,-3.238281 l 0.0957,-0.01758 0.01367,-0.09375 c 0.414449,-2.888046 1.887808,-8.31762 3.033203,-12.490235 v 0.0059 c 0.611154,-1.894203 2.606335,-6.134614 5.5625,-9.285156 2.32321,-2.341182 5.888472,-3.80714 7.613281,-4.677735 6.227177,-1.941529 8.581918,-1.706479 14.914068,-1.884765 10e-4,9.3e-5 0.002,-9.4e-5 0.004,0 4.73892,0.315293 8.29512,0.658727 13.12109,2.367187 0.002,7.73e-4 0.004,0.0012 0.006,0.002 4.07375,1.831691 8.32291,4.501454 11.79492,7.761719 0.001,0.0012 0.003,0.0027 0.004,0.0039 1.37858,1.58484 2.27608,2.613861 2.87109,3.507813 0.59682,0.896662 0.89605,1.659469 1.0957,2.759765 l 0.25977,-0.04687 c -0.2042,-1.125335 -0.52185,-1.938523 -1.13477,-2.859375 -0.61292,-0.920851 -1.51687,-1.952141 -2.90234,-3.544922 l -0.004,-0.0039 -0.006,-0.0059 c -3.50133,-3.288822 -7.77782,-5.972694 -11.88086,-7.816406 l -0.004,-0.0039 h -0.006 c -4.8588,-1.720914 -8.454,-2.07094 -13.20117,-2.386718 h -0.006 z"
       id="path38467" />
    <path
       style="color:#000000;fill:#000000;-inkscape-stroke:none"
       d="m 142.71289,117.11328 c -1.20062,10.92786 -2.17313,14.53036 -2.81836,18.44336 -0.35992,2.18275 -0.89357,4.58317 -1.27539,6.55664 -1.0471,5.41204 -1.63591,8.80971 -3.48828,10.72266 -0.68826,0.71077 -2.22291,1.85071 -3.13477,2.30664 -0.87359,0.43679 -2.34458,0.70454 -3.90625,0.84375 -1.56167,0.13921 -3.21782,0.1552 -4.48437,0.11133 -1.84727,-0.064 -3.78293,0.0103 -5.5918,-0.24219 -1.80706,-0.25226 -3.48293,-0.82693 -4.83984,-2.18164 l -0.002,-0.002 c -6.8e-4,-6.7e-4 -0.001,-0.001 -0.002,-0.002 -1.01631,-1.11295 -1.67598,-2.90584 -2.11133,-4.88476 -0.43582,-1.98108 -0.65003,-4.14489 -0.80078,-5.9961 v -0.004 -0.004 c -0.0847,-0.59322 -0.25567,-3.3148 -0.27734,-4.25977 l -0.002,-0.1289 h -0.13086 c -0.29619,0 -0.97845,-0.0196 -1.59961,-0.0254 -0.31059,-0.003 -0.60648,-0.002 -0.83399,0.006 -0.11375,0.004 -0.21095,0.0105 -0.28711,0.0195 -0.0381,0.005 -0.0709,0.008 -0.10156,0.0156 -0.0306,0.008 -0.0573,0.008 -0.10351,0.0547 l -0.0371,0.0371 -0.002,0.0527 c 0,0 -0.0893,3.07801 -0.1875,5.19727 -0.079,1.70445 -0.09,4.38805 -0.35156,6.90625 -0.26152,2.5182 -0.79247,4.86679 -1.81836,5.86328 -3.66914,3.56398 -8.748966,4.45522 -12.300781,4.44727 -3.422415,-0.008 -7.079992,-0.16696 -10.335937,-0.96289 -1.721582,-0.42085 -3.486278,-1.63988 -4.705078,-4.40821 -0.876483,-2.14588 -1.160319,-5.40307 -1.330078,-8.80859 -0.16984,-3.40712 -0.230525,-6.96392 -0.691407,-9.73438 l -0.259765,0.0449 c 0.455466,2.7379 0.517364,6.2881 0.6875,9.70117 0.170136,3.41307 0.444408,6.68669 1.349609,8.90039 v 0.002 l 0.002,0.002 c 1.24542,2.82879 3.088355,4.11946 4.884766,4.5586 3.292474,0.80486 6.968383,0.9608 10.398437,0.96875 3.596443,0.008 8.743651,-0.88797 12.484371,-4.52149 1.13822,-1.10559 1.63502,-3.4888 1.89844,-6.02539 0.26343,-2.53658 0.27505,-5.22912 0.35352,-6.92187 0.0966,-2.08466 0.17847,-4.99559 0.18164,-5.10547 0.006,-8.9e-4 0.008,-0.001 0.0156,-0.002 0.063,-0.007 0.15583,-0.0137 0.26563,-0.0176 0.2196,-0.008 0.51158,-0.009 0.82031,-0.006 0.57009,0.005 1.14633,0.0209 1.48047,0.0234 0.0295,1.03089 0.18098,3.53041 0.27148,4.16406 0.15101,1.85316 0.36468,4.02331 0.80469,6.02344 0.44059,2.00276 1.10297,3.83721 2.17774,5.01172 l 0.002,0.002 0.004,0.002 c 1.4084,1.40842 3.1528,2.00273 4.99414,2.25977 1.84133,0.25704 3.78352,0.18064 5.61718,0.24414 1.27667,0.0442 2.9412,0.0292 4.51758,-0.11133 1.57639,-0.14052 3.06228,-0.40126 4.00195,-0.87109 0.96198,-0.48099 2.47976,-1.61033 3.20508,-2.35938 1.94068,-2.00415 2.51198,-5.44596 3.5586,-10.85547 0.38067,-1.96753 0.91564,-4.37096 1.27734,-6.56445 0.64253,-3.89663 1.61674,-7.52004 2.81836,-18.45703 z"
       id="path41979" />
    <path
       style="color:#000000;fill:#000000;-inkscape-stroke:none"
       d="m 142.85937,90.976562 -0.26367,0.0078 0.25,8.15625 c 0.0824,2.699785 0.1131,7.202105 0.12305,9.835935 0.008,2.21594 -0.19923,5.57408 -0.25781,8.14844 l 0.26562,0.006 c 0.0584,-2.56536 0.26585,-5.92094 0.25781,-8.1543 -0.01,-2.63484 -0.0424,-7.1371 -0.125,-9.843748 z"
       id="path44935" />
    <path
       style="color:#000000;fill:#000000;-inkscape-stroke:none"
       d="m 74.5625,78.775391 c -1.589348,-0.163249 -3.47906,-0.17621 -5.177734,0.05273 -1.698674,0.228944 -3.209906,0.692327 -4.044922,1.527344 -0.948434,0.948434 -1.539842,2.808387 -1.796875,4.029297 l -0.002,0.0098 -0.002,0.0098 c 0,0 -0.107809,1.782878 -0.08789,3.091797 l 0.265625,-0.0039 c -0.01959,-1.287327 0.08735,-3.055436 0.08789,-3.064453 0.252249,-1.192122 0.862725,-3.024834 1.722657,-3.884765 0.754789,-0.754789 2.220976,-1.225876 3.892578,-1.451172 1.671602,-0.225296 3.545793,-0.213939 5.115234,-0.05273 z"
       id="path45371" />
    <path
       style="color:#000000;fill:#000000;-inkscape-stroke:none"
       d="m 74.416016,78.900391 c -0.137379,2.977257 -0.15048,4.25057 -0.214844,6.798828 -1.651086,-0.801067 -3.816582,-0.830227 -5.824219,-0.427735 -2.076624,0.416324 -3.96162,1.251077 -4.884766,2.126953 l 0.183594,0.191407 c 0.85192,-0.808299 2.714711,-1.651727 4.753906,-2.060547 2.039196,-0.40882 4.255052,-0.388596 5.835938,0.451172 l 0.189453,0.101562 0.0059,-0.214844 c 0.0685,-2.675544 0.07822,-3.907518 0.21875,-6.953125 z"
       id="path45375" />
    <path
       style="color:#000000;fill:#000000;-inkscape-stroke:none"
       d="m 74.195312,85.857422 c -0.07772,1.570982 -0.04943,2.619584 -0.03711,4.201172 0,5.610768 -0.292358,11.849106 -0.339844,16.410156 v 0.002 0.002 c 0.0257,2.65674 0.09578,3.37671 0.0918,4.74609 -0.01884,6.43872 0.120735,12.77956 0.0625,19.48633 -0.927078,0.006 -2.207801,0.0877 -3.417969,0.0918 -0.628251,0.002 -1.231042,-0.0173 -1.734375,-0.0801 -0.503332,-0.0628 -0.908371,-0.17235 -1.132812,-0.32422 -0.263292,-0.17816 -0.671703,-0.49719 -1.050781,-0.83203 -0.379079,-0.33485 -0.731187,-0.69373 -0.875,-0.92383 -0.62043,-0.99268 -1.157486,-2.00644 -1.494141,-3.13281 -1.058741,-3.54233 -1.396463,-6.66325 -1.552734,-10.67969 -0.109275,-2.76673 -0.114347,-5.54364 -0.123047,-8.08984 -0.01893,-5.57208 0.382496,-11.232015 1.123047,-19.228521 l -0.263672,-0.02344 c -0.740796,7.999151 -1.14398,13.666518 -1.125,19.251958 0.0087,2.54599 0.01547,5.32827 0.125,8.10156 0.156638,4.02588 0.495945,7.17372 1.5625,10.74219 0.346269,1.15854 0.896451,2.19409 1.523437,3.19726 0.178386,0.28542 0.536444,0.64024 0.923828,0.98242 0.387385,0.34218 0.799305,0.66485 1.078125,0.85352 0.292526,0.19794 0.72788,0.30398 1.25,0.36914 0.522121,0.0652 1.131289,0.0842 1.765625,0.082 1.268673,-0.004 2.63479,-0.0957 3.548829,-0.0957 h 0.130859 l 0.002,-0.13086 c 0.06128,-6.76054 -0.08145,-13.14091 -0.0625,-19.61719 0.004,-1.37866 -0.06614,-2.0955 -0.0918,-4.74805 0.04745,-4.55204 0.341797,-10.792767 0.341797,-16.412106 v -0.002 c -0.01234,-1.583879 -0.04017,-2.623578 0.03711,-4.185547 z"
       id="path48697" />
    <path
       style="color:#000000;fill:#000000;-inkscape-stroke:none"
       d="m 108.18164,49.644531 c -5.08619,-0.396906 -10.259709,0.386366 -15.015624,2.542969 -3.774929,1.711768 -5.270858,3.473024 -6.712891,5.396484 l 0.210937,0.160157 c 1.436069,-1.915505 2.874253,-3.619851 6.611329,-5.314454 9.424309,-4.27352 20.514289,-3.109323 29.271489,1.986329 0.72618,0.422551 1.89273,1.173616 2.9375,2.083984 1.04476,0.910368 1.96206,1.982926 2.21484,3.019531 l 0.25781,-0.0625 c -0.27722,-1.136822 -1.23493,-2.23116 -2.29883,-3.158203 -1.06389,-0.927043 -2.24111,-1.682249 -2.97851,-2.111328 -4.41298,-2.567831 -9.41186,-4.146063 -14.49805,-4.542969 z"
       id="path52190" />
    <path
       style="color:#000000;fill:#000000;-inkscape-stroke:none"
       d="m 137.4707,94.216797 -0.26367,0.0293 c 0.43237,3.789646 0.31013,6.507426 0.2832,9.871096 l 0.26368,0.004 c 0.0269,-3.35829 0.15142,-6.094819 -0.28321,-9.904293 z"
       id="path52852" />
    <path
       style="color:#000000;fill:#000000;-inkscape-stroke:none"
       d="m 85.257812,96.019531 -0.263671,0.0078 c 0.187382,6.573096 1.838285,12.645836 4.564453,17.189456 0.690412,1.15068 1.95797,3.07723 3.013672,4.01562 l 0.002,0.002 h 0.002 c 3.342616,2.83338 7.315418,4.95817 11.955078,5.82031 2.09228,0.49764 5.10711,0.90934 6.74219,1 1.97042,0.1093 3.65779,0.10677 6.61523,-0.0625 l 0.01,-0.002 h 0.008 c 3.17179,-0.61466 5.4556,-0.46527 10.625,-3.25195 l 0.008,-0.006 0.008,-0.006 c 6.31636,-4.77202 7.10906,-9.59126 9.20118,-16.57031 l -0.25391,-0.0742 c -2.09564,6.99081 -2.84974,11.70264 -9.09961,16.42774 -5.11854,2.75705 -7.33134,2.60087 -10.52148,3.21679 -2.95187,0.16895 -4.62404,0.17134 -6.58594,0.0625 -1.61013,-0.0893 -4.63276,-0.4997 -6.70117,-0.99218 h -0.004 l -0.002,-0.002 c -4.588633,-0.85266 -8.51894,-2.95191 -11.832033,-5.75976 l -0.002,-0.002 c -0.998524,-0.88844 -2.277806,-2.81458 -2.960938,-3.95312 -2.696874,-4.4948 -4.341092,-10.5271 -4.527344,-17.060549 z"
       id="path53818" />
    <path
       style="color:#000000;fill:#000000;-inkscape-stroke:none"
       d="m 137.75391,104.10938 -0.26368,0.0195 c 0.15482,1.97722 0.33047,5.1884 0.24414,7.16992 -0.2674,6.1382 -1.63267,15.01405 -2.32617,18.93164 l 0.25977,0.0449 c 0.69506,-3.92638 2.06145,-12.79864 2.33008,-18.96484 0.0875,-2.0094 -0.0888,-5.21735 -0.24414,-7.20117 z"
       id="path56038" />
    <path
       style="color:#000000;fill:#000000;-inkscape-stroke:none"
       d="m 86.458984,57.576172 c -2.734111,3.057431 -3.620651,7.795505 -4.228515,10.90039 -1.062831,5.428799 -1.811314,10.159975 -2.164063,15.388672 v 0.002 c -0.403643,6.675244 -0.498047,14.257667 -0.498047,20.958983 0,1.75632 -0.002,4.81708 0.09961,6.70703 0.133839,5.85069 0.439773,11.40618 0.34375,17.24414 v 0.002 0.002 c 0.0512,3.99851 0.130655,10.0925 0.46875,15.39062 0.169047,2.64907 0.4014,5.09921 0.730468,6.99219 0.164535,0.94649 0.354072,1.75383 0.572266,2.38086 0.214541,0.61654 0.452171,1.05289 0.759766,1.28711 0.332394,0.44783 1.042988,0.69182 1.988281,0.84766 0.952919,0.1571 2.147124,0.21414 3.429687,0.21679 2.565127,0.005 5.48349,-0.20752 7.488282,-0.29101 0.351714,-0.0146 1.165625,-0.0633 2.035156,-0.28711 0.869531,-0.2238 1.802903,-0.6212 2.380859,-1.36133 0.959206,-1.22835 1.341476,-3.25209 1.499996,-5.33008 0.15853,-2.07798 0.084,-4.21477 0.084,-5.65039 0,-2.32672 -0.20825,-5.65826 -0.0625,-8.27344 v -0.002 c 0.0411,-0.91126 0.21038,-1.56373 0.98242,-2.16601 0.38049,-0.29683 1.26949,-0.37657 2.25,-0.33789 0.98051,0.0387 2.05151,0.17628 2.83984,0.22265 2.57457,0.15145 6.4041,0.37926 10.2129,0.28906 3.61887,-0.0857 7.14714,-0.49852 9.64843,-1.50976 -1.42773,2.04586 -3.0945,2.97313 -5.1914,4.13281 -3.02544,1.67321 -4.63046,1.74828 -6.61133,2.20703 l 0.0606,0.25781 c 1.95646,-0.4531 3.62042,-0.54354 6.67773,-2.23437 2.22227,-1.22901 4.05831,-2.13743 5.57617,-4.5332 l 0.23633,-0.37305 -0.40234,0.18164 c -2.43815,1.10454 -6.20598,1.51757 -10,1.60742 -3.79403,0.0898 -7.61665,-0.1376 -10.19141,-0.28906 -0.77172,-0.0454 -1.8464,-0.18331 -2.84375,-0.22266 -0.99735,-0.0393 -1.91724,-6.7e-4 -2.42383,0.39453 -0.83219,0.64921 -1.0413,1.41932 -1.08398,2.35938 -0.14722,2.64154 0.0625,5.97823 0.0625,8.28906 0,1.44465 0.073,3.57285 -0.084,5.63086 -0.157,2.05801 -0.553,4.04287 -1.44531,5.18555 -0.52056,0.66662 -1.398609,1.05341 -2.238281,1.26953 -0.839672,0.21612 -1.633997,0.26299 -1.978516,0.27734 -2.012781,0.0838 -4.928476,0.29629 -7.478516,0.29102 -1.275019,-0.003 -2.458815,-0.0599 -3.386718,-0.21289 -0.927903,-0.15298 -1.590882,-0.41447 -1.832032,-0.74805 l -0.01172,-0.0176 -0.01758,-0.0117 c -0.229011,-0.16767 -0.469193,-0.57868 -0.679688,-1.18359 -0.210494,-0.60491 -0.397503,-1.39997 -0.560547,-2.33789 -0.326087,-1.87584 -0.559796,-4.31897 -0.728515,-6.96289 -0.337353,-5.2865 -0.415592,-11.37646 -0.466797,-15.375 0.09624,-5.8513 -0.212037,-11.41109 -0.345703,-17.25781 v -0.002 -0.002 c -0.100732,-1.87437 -0.09766,-4.9368 -0.09766,-6.69336 0,-6.698195 0.09508,-14.276172 0.498047,-20.941404 v -0.002 c 0.351836,-5.213549 1.09658,-9.932836 2.158203,-15.355468 0.578569,-2.955252 1.465732,-7.303681 3.837891,-10.28711 -0.634553,2.230047 -1.069879,4.816755 -1.333984,7.88086 v 0.002 0.002 c -0.416387,7.175575 -0.420732,24.546395 0,29.910156 l 0.263671,-0.02148 c -0.417171,-5.318366 -0.414801,-22.716534 0,-29.869141 v -0.0039 c 0.283902,-3.291896 0.710994,-6.143272 1.427735,-8.4375 z"
       id="path56040" />
    <path
       style="color:#000000;fill:#000000;-inkscape-stroke:none"
       d="m 135.40625,130.23633 c -0.24934,1.86175 -0.67849,5.70415 -1.45703,9.49414 -0.77854,3.78999 -1.92301,7.52718 -3.51953,9.13086 -0.44718,0.44918 -1.33679,0.84286 -2.32617,1.10937 -0.98939,0.26652 -2.08068,0.41263 -2.93555,0.40821 -1.18229,-0.006 -2.62701,-0.1356 -3.83984,-0.29493 -0.60642,-0.0797 -1.15576,-0.16591 -1.58399,-0.24804 -0.42823,-0.0821 -0.74621,-0.16646 -0.8457,-0.21289 -1.69374,-0.79039 -2.36686,-2.22706 -2.69141,-4.26172 -0.32455,-2.03466 -0.28159,-4.64863 -0.52734,-7.70313 l -0.26367,0.0215 c 0.24457,3.03983 0.19864,5.65171 0.52929,7.72461 0.33065,2.0729 1.05791,3.62549 2.83985,4.45703 0.16632,0.0776 0.47483,0.15088 0.91015,0.23437 0.43533,0.0835 0.98702,0.16979 1.59766,0.25 1.22128,0.16044 2.67259,0.2924 3.87305,0.29883 0.88598,0.005 1.99299,-0.14513 3.00585,-0.41797 1.01287,-0.27283 1.93158,-0.66169 2.44532,-1.17773 1.69485,-1.70244 2.80807,-5.45798 3.58984,-9.26367 0.78177,-3.80569 1.21265,-7.65974 1.46094,-9.51368 z"
       id="path56769" />
    <text
       xml:space="preserve"
       style="font-style:normal;font-variant:normal;font-weight:bold;font-stretch:normal;font-size:50.8px;line-height:1.25;font-family:'Poor Richard';-inkscape-font-specification:'Poor Richard Bold';white-space:pre;inline-size:178.163;fill:#000000;fill-opacity:1;stroke:none;stroke-width:0.264583"
       x="24.658556"
       y="226.85872"
       id="text73927"><tspan
         x="24.658556"
         y="226.85872"
         id="tspan90546">Amogus</tspan></text>
    <path
       style="fill:#000000;stroke-width:0.665698"
       d="m 333.18175,607.67072 c -6.21603,-0.38142 -15.96006,-1.64882 -20.63663,-2.68421 -9.00658,-1.99405 -14.67801,-6.22341 -18.85546,-14.0611 -4.29671,-8.06146 -5.5698,-16.17012 -7.11318,-45.30586 -1.1019,-20.80155 -1.54433,-25.79908 -2.43807,-27.54023 -0.48597,-0.94674 -1.49849,-1.16498 -5.40496,-1.16498 -11.9044,0 -31.03962,-3.3312 -36.07033,-6.2794 -3.48347,-2.04145 -9.3602,-7.93498 -11.4241,-11.45676 -1.68611,-2.87713 -6.44189,-16.40553 -9.21031,-26.19989 -3.75015,-13.26758 -6.11157,-41.62071 -5.37801,-64.57269 0.79093,-24.74671 3.38536,-61.23534 5.4196,-76.2224 2.67416,-19.7016 6.38559,-33.32458 10.93032,-40.12028 5.50177,-8.22672 17.8171,-12.69183 43.72813,-15.85425 5.19809,-0.63442 9.77621,-1.35444 10.1736,-1.60005 0.39739,-0.2456 1.46169,-4.01759 2.3651,-8.38221 2.33256,-11.26916 9.34802,-37.75705 11.35826,-42.8848 4.50305,-11.4864 14.05704,-26.16968 21.57203,-33.15347 3.09377,-2.8751 12.27433,-8.60793 19.86048,-12.40195 5.45696,-2.72916 9.97068,-4.39117 16.3096,-6.0054 13.41331,-3.41575 19.18168,-3.98895 40.05231,-3.97993 21.20463,0.009 30.62684,1.08807 45.64159,5.22624 9.42405,2.59734 13.50781,4.29702 22.92529,9.5416 22.58526,12.5777 40.81627,29.35261 45.60912,41.96634 l 1.32723,3.49299 -1.50015,-0.33731 c -1.54637,-0.3477 -17.84102,-2.55589 -24.64479,-3.33977 -3.68171,-0.42418 -3.89753,-0.55654 -5.25414,-3.22221 -6.07077,-11.92882 -33.82382,-26.89932 -58.77389,-31.70372 -26.6112,-5.12426 -52.6296,-1.99403 -74.59189,8.97404 -9.19575,4.59239 -14.20615,8.59864 -21.01567,16.80381 -10.95006,13.19433 -14.92229,25.05508 -21.24572,63.43787 -4.19949,25.49058 -5.07557,37.59473 -6.09171,84.16456 -0.67675,31.01605 -0.63138,41.0163 0.33078,72.89391 0.61332,20.32043 1.11264,44.88468 1.10958,54.58722 -0.008,26.97862 1.46116,59.29211 3.37582,74.22531 2.148,16.75316 4.50767,21.73215 11.25057,23.73917 3.65892,1.08906 37.00141,1.07333 46.15448,-0.0218 13.04341,-1.56058 17.32277,-6.02614 19.85765,-20.72175 0.48426,-2.80743 0.70611,-14.06504 0.63171,-32.0557 -0.0999,-24.15418 0.024,-28.0751 0.96063,-30.4161 2.07341,-5.18196 4.24345,-5.54797 24.26183,-4.09214 5.30894,0.3861 17.74612,0.69962 27.63818,0.69673 18.92623,-0.005 28.91144,-0.86441 38.09948,-3.27716 2.65447,-0.69706 4.82631,-1.04306 4.82631,-0.76888 0,0.75278 -5.92284,6.11931 -9.33511,8.45829 -8.50328,5.82868 -21.40097,11.33423 -29.33166,12.52061 -5.07038,0.7585 -4.84214,-0.10663 -3.98239,15.09499 1.08374,19.16231 2.44522,24.67104 7.31744,29.60717 3.09231,3.13289 5.68979,4.07994 14.27781,5.20573 15.11087,1.98086 26.40184,0.87451 33.18708,-3.25185 8.46916,-5.15042 14.80646,-23.70229 19.46045,-56.96879 0.94762,-6.77348 2.31254,-15.94082 3.03318,-20.37187 3.84829,-23.66236 6.87595,-48.50729 7.65785,-62.84036 0.43216,-7.92195 -0.73914,-63.61482 -1.40036,-66.58412 -0.342,-1.53582 0.0357,-1.87552 4.44103,-3.99419 2.64816,-1.27358 6.83743,-3.70379 9.30951,-5.40047 l 4.49468,-3.08488 0.53682,7.07907 c 0.90957,11.99429 0.67714,85.98933 -0.29408,93.61977 -3.90632,30.69029 -8.45862,57.60022 -16.0476,94.86194 -6.13471,30.12121 -8.03596,34.0453 -20.52451,42.36127 -6.52054,4.34194 -10.56101,5.04779 -30.91759,5.40111 -19.20931,0.33341 -26.13087,-0.21375 -32.96134,-2.60561 -8.46301,-2.96355 -13.35653,-8.54878 -16.52574,-18.86171 -2.34195,-7.62093 -3.43641,-14.70464 -4.75695,-30.78852 l -1.16144,-14.14608 h -6.06213 -6.06214 l -0.80532,21.46875 c -0.8798,23.4546 -1.4562,29.57514 -3.49368,37.09828 -1.7536,6.47486 -3.19595,8.69796 -8.46097,13.04079 -7.90356,6.51922 -20.08243,11.35197 -32.41699,12.86353 -5.47591,0.67106 -16.97188,0.80455 -25.29652,0.29375 z M 280.75633,445.8511 c -0.19479,-27.3685 -0.10495,-59.64652 0.19964,-71.72893 0.30459,-12.08242 0.73314,-34.32505 0.95232,-49.42807 l 0.39852,-27.46003 -9.51166,0.0116 c -16.26723,0.0198 -24.35191,2.68067 -28.33913,9.32721 -3.21112,5.3528 -4.80343,11.15127 -4.8127,17.5257 -0.004,2.98203 -0.43673,10.06512 -0.96087,15.74019 -1.50986,16.34781 -2.9236,39.07806 -3.37442,54.25438 -0.45068,15.17164 0.53804,49.14943 1.69497,58.24855 1.70579,13.41572 4.88713,25.0622 8.63561,31.61387 2.43564,4.25706 8.5683,10.06567 11.53298,10.92359 1.16474,0.33706 7.02748,0.63984 13.02831,0.67286 l 10.9106,0.06 z"
       id="path88694"
       transform="scale(0.26458333)" />
    <path
       style="fill:#000080;stroke-width:0.470719"
       d="m 445.30058,364.72997 c -26.15231,-1.40203 -37.26823,-2.97021 -47.48536,-6.699 -10.50355,-3.83332 -18.80874,-10.47042 -26.30913,-21.02495 -8.09607,-11.39278 -9.37004,-17.14837 -8.901,-40.21345 0.36027,-17.71638 2.04155,-31.36731 4.5679,-37.08836 1.7355,-3.93016 6.11291,-9.9998 9.96747,-13.82073 11.36638,-11.26723 23.04038,-16.92702 40.38768,-19.58076 4.78323,-0.73173 9.05654,-0.82286 36.71611,-0.78295 34.12397,0.0492 34.10803,0.0483 54.90371,3.27281 14.68931,2.27768 22.96047,6.30308 32.54932,15.84106 7.0221,6.98485 9.68132,11.64935 13.66017,23.96114 2.399,7.42323 3.36254,13.03595 3.70872,21.60375 0.43823,10.84606 -1.05546,22.28294 -3.9629,30.34303 -2.08184,5.77134 -11.71082,19.13218 -16.68466,23.15105 -4.50513,3.64015 -9.93649,7.04557 -15.72066,9.85674 -8.81492,4.28415 -10.45639,4.76097 -24.91215,7.23663 -19.82344,3.39491 -37.68754,4.7373 -52.48522,3.94399 z m 33.18572,-21.54205 c 17.10833,-2.07675 27.20306,-4.5153 37.20707,-8.98797 11.52154,-5.15115 15.26959,-8.13487 18.3167,-14.58146 3.80004,-8.0395 5.68836,-22.06745 4.53054,-33.65644 -1.06903,-10.70023 -2.33283,-17.8688 -3.59804,-20.40898 -3.24772,-6.52044 -12.992,-13.37836 -23.27055,-16.37754 -10.28205,-3.0002 -32.71482,-4.6351 -63.61493,-4.63624 -20.59371,-7.6e-4 -28.24287,0.85272 -38.76654,4.32547 -18.67918,6.16403 -23.93961,12.58562 -25.70678,31.38113 -0.68375,7.27237 -0.28472,23.56654 0.72214,29.4875 1.63069,9.58952 3.37869,13.79044 7.37119,17.7149 3.28956,3.2335 10.78718,8.29113 15.52493,10.47256 3.91967,1.80476 13.2042,4.22599 19.26977,5.0252 11.11194,1.46412 40.80798,1.60221 52.0145,0.24187 z"
       id="path89202"
       transform="scale(0.26458333)" />
    <path
       style="fill:#5599ff;stroke-width:0.470719"
       d="m 439.65195,342.43273 c -22.06269,-0.96048 -33.05175,-4.51336 -45.18121,-14.6076 -3.3982,-2.82802 -4.89904,-4.97655 -6.43801,-9.21638 -3.797,-10.4606 -4.59588,-35.60949 -1.51555,-47.70972 1.95552,-7.68169 5.62714,-12.35709 12.48941,-15.90386 2.1107,-1.09091 4.11306,-1.98348 4.44969,-1.98348 0.33663,0 -0.14986,0.79434 -1.08109,1.7652 -3.30735,3.44811 -4.61727,7.64536 -4.61727,14.79466 0,12.13558 3.86996,23.33906 10.00102,28.9528 4.91868,4.50366 11.28942,6.55849 30.24549,9.75544 21.20297,3.57589 35.1654,4.74403 52.0145,4.35169 31.01605,-0.72223 40.98437,-4.40986 46.4207,-17.17263 l 1.13787,-2.67136 -0.28077,4.23647 c -0.95204,14.36469 -4.04639,23.5871 -9.57503,28.53742 -3.16707,2.83579 -14.4755,8.52072 -21.24391,10.67967 -5.46501,1.74319 -16.51373,3.9957 -24.46109,4.9869 -13.60425,1.69672 -24.16533,1.99706 -42.36475,1.20478 z"
       id="path89334"
       transform="scale(0.26458333)" />
    <path
       style="fill:#d5e5ff;stroke-width:0.470719"
       d="m 469.77799,310.88408 c -17.56557,-1.61795 -39.19545,-5.01195 -49.37762,-7.74798 -8.41323,-2.2607 -12.98532,-5.69029 -16.37958,-12.28656 -2.46127,-4.78312 -3.2705,-7.34984 -4.13805,-13.12508 -2.13128,-14.18779 0.73728,-22.50856 9.2622,-26.86661 2.8014,-1.43211 7.78459,-2.79101 13.79647,-3.76226 10.10845,-1.63307 51.60384,-1.30629 70.37255,0.5542 18.83533,1.86709 27.6714,5.1931 36.41529,13.70719 3.99148,3.88657 4.83154,6.02685 6.28044,16.00105 1.45779,10.03539 1.21184,12.69044 -1.73456,18.72449 -4.87184,9.97723 -13.03435,13.44654 -34.84181,14.80883 -8.77847,0.54837 -23.66249,0.54473 -29.65533,-0.007 z m 51.47545,-29.33498 c 4.18082,-1.74685 7.01241,-6.28599 7.08414,-11.35615 0.0603,-4.26521 -1.11458,-6.76562 -4.74025,-10.08789 -7.20595,-6.60294 -20.26543,-10.56428 -36.88588,-11.1886 -11.09675,-0.41684 -15.7687,0.69846 -19.82355,4.73233 -5.09112,5.06477 -5.39361,12.34782 -0.69283,16.68085 2.62486,2.41951 6.23287,3.57616 13.47292,4.31912 5.58977,0.57361 11.56419,1.8076 26.12004,5.39495 8.9248,2.19955 12.88213,2.58476 15.46541,1.50539 z"
       id="path89577"
       transform="scale(0.26458333)" />
    <path
       style="fill:#d40000;stroke-width:0.470719"
       d="m 422.47069,467.59771 c -12.56028,-0.58892 -30.30673,-3.79696 -40.35785,-7.29553 -11.99215,-4.17419 -27.23506,-13.49602 -33.54562,-20.51487 -8.75912,-9.74226 -16.89651,-26.05251 -21.19088,-42.47417 -4.68023,-17.89715 -5.39839,-27.84976 -5.72887,-79.39277 -0.33585,-52.38106 0.31555,-70.10323 3.18168,-86.56177 1.66495,-9.56079 2.66334,-12.60155 5.18748,-15.79936 5.48457,-6.94833 12.24599,-12.15356 21.50538,-16.55578 26.34306,-12.52435 58.72922,-13.79565 88.60066,-3.47795 15.45117,5.33689 27.81131,12.33328 35.82876,20.28069 3.37357,3.3441 6.57819,7.75533 5.98042,8.2322 -0.0828,0.066 -9.36485,-0.0383 -20.62681,-0.23175 -38.80007,-0.66665 -52.06087,0.76947 -65.82562,7.12881 -9.63189,4.44994 -20.73264,13.74045 -26.09655,21.84087 -3.60165,5.43912 -4.28645,7.07231 -5.45336,13.00592 -2.17424,11.05574 -2.88868,19.94605 -2.88493,35.89958 0.003,13.45767 0.59693,18.74306 2.77658,24.71544 3.24294,8.88587 13.18686,21.56779 20.99197,26.77199 8.65737,5.77244 19.84201,9.41632 34.17184,11.13294 15.62195,1.87141 41.77075,2.49421 54.32342,1.29386 15.18002,-1.45159 34.3889,-4.60447 40.71723,-6.68319 2.20061,-0.72285 4.1463,-1.17503 4.32375,-1.00483 0.61085,0.58588 1.44409,19.81699 1.21073,27.94373 l -0.23374,8.14039 -3.56001,11.76799 c -6.66352,22.02701 -10.93984,30.44812 -20.4955,40.36061 -7.48561,7.76514 -12.22005,10.87217 -23.07232,15.14151 -12.4755,4.90792 -30.68758,7.22818 -49.72784,6.33544 z"
       id="path89862"
       transform="scale(0.26458333)" />
    <path
       style="fill:#d40000;stroke-width:0.470719"
       d="m 241.18186,323.61032 c 0.34529,-5.68519 1.4389,-9.83453 3.85991,-14.64513 3.70211,-7.35621 9.9087,-9.74119 26.44079,-10.1603 l 9.52719,-0.24152 -0.24784,8.88004 c -0.13631,4.88403 -0.36584,10.43527 -0.51007,12.3361 -0.24767,3.26417 -0.31857,3.43984 -1.27712,3.16402 -5.78268,-1.66391 -6.80207,-1.78545 -13.01553,-1.55181 -7.95206,0.299 -13.87732,1.75305 -20.42983,5.01342 l -4.65802,2.31772 z"
       id="path89975"
       transform="scale(0.26458333)" />
    <path
       style="fill:#800000;stroke-width:0.470719"
       d="m 324.4412,587.67913 c -9.38499,-0.76039 -12.31895,-2.43465 -14.18522,-8.09474 -4.16719,-12.63838 -5.83655,-37.5775 -6.66135,-99.51581 -0.25464,-19.1224 -0.66249,-40.27542 -0.90632,-47.0067 -0.24383,-6.73129 -0.45155,-26.4309 -0.46159,-43.77691 -0.0387,-66.71887 1.87193,-91.20642 10.36246,-132.8136 2.04312,-10.01216 4.23531,-17.70041 6.74093,-23.6412 1.66623,-3.9506 5.39157,-10.64687 5.73314,-10.3053 0.1001,0.1001 -0.34553,2.67265 -0.99029,5.71678 -3.25253,15.3562 -4.05187,31.1025 -4.06512,80.07958 -0.009,32.00719 0.42156,49.84859 1.52668,63.31176 1.93736,23.60193 8.6965,44.56902 19.65103,60.95817 5.03524,7.53326 7.1899,9.86501 13.4205,14.52351 15.62796,11.68472 30.14268,17.21421 54.44914,20.74279 21.81826,3.16736 47.45902,1.09807 63.59066,-5.13198 10.61496,-4.0995 17.11919,-8.33734 23.99311,-15.63274 9.19193,-9.75554 14.01018,-19.137 19.92634,-38.7979 l 3.00028,-9.97072 0.32252,2.77887 c 0.54079,4.65945 0.44693,22.63079 -0.15339,29.36993 -1.35185,15.17577 -3.70311,33.87318 -6.21002,49.38265 -0.77798,4.81316 -2.13783,13.99615 -3.02188,20.40665 -4.008,29.06307 -7.77023,44.88342 -13.15148,55.30251 -3.44272,6.66574 -6.07985,8.85071 -13.28983,11.01115 -6.10207,1.82846 -19.5872,1.66322 -30.52333,-0.37403 -5.87518,-1.09447 -9.74339,-4.06851 -11.93167,-9.17356 -2.0345,-4.74629 -2.71813,-10.16954 -3.73794,-29.65318 l -0.33607,-6.42072 4.7078,-1.03425 c 9.23171,-2.0281 15.73216,-4.68647 25.4941,-10.42586 5.33045,-3.13396 8.87736,-5.85552 11.70616,-8.9822 2.1709,-2.39949 5.06523,-6.51346 4.78185,-6.79684 -0.0755,-0.0755 -1.75376,0.49043 -3.72947,1.2576 -14.01349,5.44145 -40.88919,6.80456 -77.79246,3.94556 -14.5278,-1.12551 -17.33288,-0.38722 -19.86543,5.22854 -0.78745,1.74612 -0.83578,3.65822 -0.69585,27.53066 0.15065,25.70131 -0.10761,32.15325 -1.56422,39.07772 -2.00799,9.54568 -5.69289,13.62448 -13.82518,15.30306 -5.63169,1.16243 -34.3752,2.26353 -42.30859,1.62075 z"
       id="path90168"
       transform="scale(0.26458333)" />
    <path
       style="fill:#aa0000;stroke-width:0.470719"
       d="m 258.51163,493.55425 c -1.92782,-0.45629 -4.2023,-2.04939 -7.49504,-5.24973 -5.32378,-5.17437 -9.65952,-17.0131 -11.87064,-32.41275 -1.44057,-10.03298 -1.91261,-18.55168 -2.21712,-40.01115 -0.36431,-25.67315 0.38655,-43.28039 3.16025,-74.1066 0.70179,-7.7995 1.1122,-10.5266 1.67835,-11.15218 2.22131,-2.45453 12.26129,-6.38812 19.10202,-7.48404 4.97963,-0.79776 13.55352,-0.39336 16.61965,0.78389 l 2.3536,0.90367 0.13167,11.51815 c 0.0724,6.33498 -0.16617,23.80393 -0.53019,38.81988 -0.48949,20.19129 -0.5726,37.5383 -0.31915,66.6068 0.18849,21.61779 0.23677,42.21764 0.1073,45.77746 l -0.23541,6.47239 -9.46222,-0.0482 c -5.20422,-0.0265 -10.1646,-0.21443 -11.02307,-0.41761 z"
       id="path90207"
       transform="scale(0.26458333)" />
    <path
       style="fill:#aa0000;stroke-width:1.88288"
       d="m 315.11026,583.8615 c -6.251,-4.53405 -8.18599,-21.24884 -10.12348,-87.44813 -3.56229,-121.71479 -2.08474,-180.25727 5.63829,-223.3961 3.52541,-19.69202 9.11307,-41.6081 10.24846,-40.19687 0.29048,0.36104 -0.05,16.75504 -0.75658,36.43111 -0.70659,19.67608 -0.64672,53.99152 0.13305,76.25655 1.52402,43.51586 3.37192,54.17257 12.96952,74.79417 15.00626,32.24278 49.04317,49.52093 97.40938,49.44793 47.81622,-0.0721 72.74236,-16.50239 85.49571,-56.35499 l 3.34714,-10.45934 0.1013,10.71033 c 0.25328,26.78978 -14.59278,121.48256 -21.36554,136.27626 -6.40776,13.99635 -11.50748,16.81327 -29.80449,16.46294 -23.26191,-0.4454 -27.06854,-4.50554 -29.11588,-31.05487 l -1.13478,-14.7148 h 4.73329 c 7.34111,0 30.64705,-12.53963 37.22035,-20.02619 3.24974,-3.70125 5.60502,-7.03315 5.23396,-7.40421 -0.37107,-0.37106 -4.8716,0.7124 -10.00119,2.40773 -7.38787,2.44168 -17.62297,3.11224 -49.2391,3.22599 -30.03597,0.10807 -40.51937,0.7481 -42.36475,2.58654 -1.76933,1.76268 -2.71434,12.36959 -3.39362,38.09023 l -0.94144,35.64726 -5.16639,5.16164 c -5.02957,5.02495 -5.82737,5.17918 -30.12604,5.8235 -20.35164,0.53967 -25.70506,0.12126 -28.99717,-2.26668 z"
       id="path90394"
       transform="scale(0.26458333)" />
  </g>
</svg>
